<?xml version="1.0" encoding="UTF-8" standalone="no"?><svg xmlns="http://www.w3.org/2000/svg" xmlns:xlink="http://www.w3.org/1999/xlink" contentScriptType="application/ecmascript" contentStyleType="text/css" height="1067.5px" preserveAspectRatio="none" style="width:789px;height:1067px;" version="1.1" viewBox="0 0 789 1067" width="789px" zoomAndPan="magnify"><defs><filter height="300%" id="f1lv79js74tsvu" width="300%" x="-1" y="-1"><feGaussianBlur result="blurOut" stdDeviation="1.0"/><feColorMatrix in="blurOut" result="blurOut2" type="matrix" values="0 0 0 0 0 0 0 0 0 0 0 0 0 0 0 0 0 0 .4 0"/><feOffset dx="2.0" dy="2.0" in="blurOut2" result="blurOut3"/><feBlend in="SourceGraphic" in2="blurOut3" mode="normal"/></filter></defs><g><text fill="#000000" font-family="sans-serif" font-size="9" lengthAdjust="spacingAndGlyphs" text-decoration="underline" textLength="132" x="325.5" y="9.3428">CONJUGAISON's Class Diagram</text><line style="stroke: #000000; stroke-width: 1.0;" x1="325.5" x2="457.5" y1="10.3428" y2="10.3428"/><text fill="#000000" font-family="sans-serif" font-size="9" lengthAdjust="spacingAndGlyphs" textLength="0" x="392.75" y="20.6631"/><!--cluster com.example.cassa.entrainementprojettut--><polygon fill="#FFFFFF" filter="url(#f1lv79js74tsvu)" points="11,34.6406,161.5,34.6406,165,46.4453,766,46.4453,766,1024.1406,11,1024.1406,11,34.6406" style="stroke: #000000; stroke-width: 0.75;"/><line style="stroke: #000000; stroke-width: 0.75;" x1="11" x2="165" y1="46.4453" y2="46.4453"/><text fill="#000000" font-family="sans-serif" font-size="7" font-weight="bold" lengthAdjust="spacingAndGlyphs" textLength="147.5" x="13" y="42.9072">com.example.cassa.entrainementprojettut</text><!--cluster com.example.cassa.entrainementprojettut.conjugaison--><polygon fill="#FFFFFF" filter="url(#f1lv79js74tsvu)" points="23,100.1406,218.5,100.1406,222,111.9453,696,111.9453,696,1012.1406,23,1012.1406,23,100.1406" style="stroke: #000000; stroke-width: 0.75;"/><line style="stroke: #000000; stroke-width: 0.75;" x1="23" x2="222" y1="111.9453" y2="111.9453"/><text fill="#000000" font-family="sans-serif" font-size="7" font-weight="bold" lengthAdjust="spacingAndGlyphs" textLength="192.5" x="25" y="108.4072">com.example.cassa.entrainementprojettut.conjugaison</text><!--cluster com.example.cassa.entrainementprojettut.conjugaison.SetsConjugaison--><polygon fill="#FFFFFF" filter="url(#f1lv79js74tsvu)" points="35,354.6406,292,354.6406,295.5,366.4453,684,366.4453,684,542.1406,35,542.1406,35,354.6406" style="stroke: #000000; stroke-width: 0.75;"/><line style="stroke: #000000; stroke-width: 0.75;" x1="35" x2="295.5" y1="366.4453" y2="366.4453"/><text fill="#000000" font-family="sans-serif" font-size="7" font-weight="bold" lengthAdjust="spacingAndGlyphs" textLength="254" x="37" y="362.9072">com.example.cassa.entrainementprojettut.conjugaison.SetsConjugaison</text><!--cluster com.example.cassa.entrainementprojettut.conjugaison.ConjugaisonUtil--><polygon fill="#FFFFFF" filter="url(#f1lv79js74tsvu)" points="421,792.6406,674,792.6406,677.5,804.4453,679,804.4453,679,1000.1406,421,1000.1406,421,792.6406" style="stroke: #000000; stroke-width: 0.75;"/><line style="stroke: #000000; stroke-width: 0.75;" x1="421" x2="677.5" y1="804.4453" y2="804.4453"/><text fill="#000000" font-family="sans-serif" font-size="7" font-weight="bold" lengthAdjust="spacingAndGlyphs" textLength="250" x="423" y="800.9072">com.example.cassa.entrainementprojettut.conjugaison.ConjugaisonUtil</text><!--cluster com.example.cassa.entrainementprojettut.conjugaison.Conjugaisons--><polygon fill="#FFFFFF" filter="url(#f1lv79js74tsvu)" points="158.5,567.1406,404,567.1406,407.5,578.9453,409,578.9453,409,887.6406,158.5,887.6406,158.5,567.1406" style="stroke: #000000; stroke-width: 0.75;"/><line style="stroke: #000000; stroke-width: 0.75;" x1="158.5" x2="407.5" y1="578.9453" y2="578.9453"/><text fill="#000000" font-family="sans-serif" font-size="7" font-weight="bold" lengthAdjust="spacingAndGlyphs" textLength="242.5" x="160.5" y="575.4072">com.example.cassa.entrainementprojettut.conjugaison.Conjugaisons</text><!--class AppDatabase--><rect fill="#FEFECE" filter="url(#f1lv79js74tsvu)" height="24" id="AppDatabase" style="stroke: #A80036; stroke-width: 0.75;" width="53.5" x="704.25" y="943.8906"/><ellipse cx="711.75" cy="951.8906" fill="#ADD1B2" rx="5.5" ry="5.5" style="stroke: #A80036; stroke-width: 0.5;"/><path d="M712.75,950.1406 Q712.8516,949.8906 712.9688,949.7656 Q713.0859,949.6406 713.2188,949.6406 Q713.4531,949.6406 713.6016,949.7813 Q713.75,949.9219 713.75,950.25 L713.75,951.0313 Q713.75,951.3594 713.6094,951.5 Q713.4688,951.6406 713.25,951.6406 Q713.0547,951.6406 712.9297,951.5547 Q712.8047,951.4688 712.75,951.2422 Q712.7266,951.0859 712.6406,951 Q712.4844,950.8359 712.2031,950.7383 Q711.9219,950.6406 711.6406,950.6406 Q711.2891,950.6406 710.9961,950.7813 Q710.7031,950.9219 710.4766,951.2344 Q710.25,951.5469 710.25,951.9766 L710.25,952.4375 Q710.25,952.9531 710.6719,953.2969 Q711.0938,953.6406 711.8438,953.6406 Q712.2891,953.6406 712.6016,953.5391 Q712.7813,953.4844 712.9844,953.3047 Q713.1172,953.2031 713.1875,953.1719 Q713.2578,953.1406 713.3438,953.1406 Q713.5078,953.1406 713.6289,953.2695 Q713.75,953.3984 713.75,953.5781 Q713.75,953.75 713.5781,953.9531 Q713.3281,954.25 712.9297,954.4141 Q712.4063,954.6406 711.7656,954.6406 Q711.0156,954.6406 710.4141,954.3438 Q709.9297,954.1094 709.5898,953.6016 Q709.25,953.0938 709.25,952.4922 L709.25,951.9453 Q709.25,951.3203 709.5508,950.7734 Q709.8516,950.2266 710.3789,949.9336 Q710.9063,949.6406 711.5,949.6406 Q711.8594,949.6406 712.1719,949.7656 Q712.4844,949.8906 712.75,950.1406 Z "/><text fill="#000000" font-family="sans-serif" font-size="6" lengthAdjust="spacingAndGlyphs" textLength="37.5" x="718.75" y="954.3457">AppDatabase</text><line style="stroke: #A80036; stroke-width: 0.75;" x1="704.75" x2="757.25" y1="959.8906" y2="959.8906"/><line style="stroke: #A80036; stroke-width: 0.75;" x1="704.75" x2="757.25" y1="963.8906" y2="963.8906"/><!--class OnClickListener--><rect fill="#FEFECE" filter="url(#f1lv79js74tsvu)" height="24" id="OnClickListener" style="stroke: #A80036; stroke-width: 0.75;" width="60" x="557" y="52.6406"/><ellipse cx="564.5" cy="60.6406" fill="#ADD1B2" rx="5.5" ry="5.5" style="stroke: #A80036; stroke-width: 0.5;"/><path d="M565.5,58.8906 Q565.6016,58.6406 565.7188,58.5156 Q565.8359,58.3906 565.9688,58.3906 Q566.2031,58.3906 566.3516,58.5313 Q566.5,58.6719 566.5,59 L566.5,59.7813 Q566.5,60.1094 566.3594,60.25 Q566.2188,60.3906 566,60.3906 Q565.8047,60.3906 565.6797,60.3047 Q565.5547,60.2188 565.5,59.9922 Q565.4766,59.8359 565.3906,59.75 Q565.2344,59.5859 564.9531,59.4883 Q564.6719,59.3906 564.3906,59.3906 Q564.0391,59.3906 563.7461,59.5313 Q563.4531,59.6719 563.2266,59.9844 Q563,60.2969 563,60.7266 L563,61.1875 Q563,61.7031 563.4219,62.0469 Q563.8438,62.3906 564.5938,62.3906 Q565.0391,62.3906 565.3516,62.2891 Q565.5313,62.2344 565.7344,62.0547 Q565.8672,61.9531 565.9375,61.9219 Q566.0078,61.8906 566.0938,61.8906 Q566.2578,61.8906 566.3789,62.0195 Q566.5,62.1484 566.5,62.3281 Q566.5,62.5 566.3281,62.7031 Q566.0781,63 565.6797,63.1641 Q565.1563,63.3906 564.5156,63.3906 Q563.7656,63.3906 563.1641,63.0938 Q562.6797,62.8594 562.3398,62.3516 Q562,61.8438 562,61.2422 L562,60.6953 Q562,60.0703 562.3008,59.5234 Q562.6016,58.9766 563.1289,58.6836 Q563.6563,58.3906 564.25,58.3906 Q564.6094,58.3906 564.9219,58.5156 Q565.2344,58.6406 565.5,58.8906 Z "/><text fill="#000000" font-family="sans-serif" font-size="6" lengthAdjust="spacingAndGlyphs" textLength="44" x="571.5" y="63.0957">OnClickListener</text><line style="stroke: #A80036; stroke-width: 0.75;" x1="557.5" x2="616.5" y1="68.6406" y2="68.6406"/><line style="stroke: #A80036; stroke-width: 0.75;" x1="557.5" x2="616.5" y1="72.6406" y2="72.6406"/><!--class GameActivity--><rect fill="#FEFECE" filter="url(#f1lv79js74tsvu)" height="24" id="GameActivity" style="stroke: #A80036; stroke-width: 0.75;" width="50.5" x="634.75" y="52.6406"/><ellipse cx="642.25" cy="60.6406" fill="#ADD1B2" rx="5.5" ry="5.5" style="stroke: #A80036; stroke-width: 0.5;"/><path d="M643.25,58.8906 Q643.3516,58.6406 643.4688,58.5156 Q643.5859,58.3906 643.7188,58.3906 Q643.9531,58.3906 644.1016,58.5313 Q644.25,58.6719 644.25,59 L644.25,59.7813 Q644.25,60.1094 644.1094,60.25 Q643.9688,60.3906 643.75,60.3906 Q643.5547,60.3906 643.4297,60.3047 Q643.3047,60.2188 643.25,59.9922 Q643.2266,59.8359 643.1406,59.75 Q642.9844,59.5859 642.7031,59.4883 Q642.4219,59.3906 642.1406,59.3906 Q641.7891,59.3906 641.4961,59.5313 Q641.2031,59.6719 640.9766,59.9844 Q640.75,60.2969 640.75,60.7266 L640.75,61.1875 Q640.75,61.7031 641.1719,62.0469 Q641.5938,62.3906 642.3438,62.3906 Q642.7891,62.3906 643.1016,62.2891 Q643.2813,62.2344 643.4844,62.0547 Q643.6172,61.9531 643.6875,61.9219 Q643.7578,61.8906 643.8438,61.8906 Q644.0078,61.8906 644.1289,62.0195 Q644.25,62.1484 644.25,62.3281 Q644.25,62.5 644.0781,62.7031 Q643.8281,63 643.4297,63.1641 Q642.9063,63.3906 642.2656,63.3906 Q641.5156,63.3906 640.9141,63.0938 Q640.4297,62.8594 640.0898,62.3516 Q639.75,61.8438 639.75,61.2422 L639.75,60.6953 Q639.75,60.0703 640.0508,59.5234 Q640.3516,58.9766 640.8789,58.6836 Q641.4063,58.3906 642,58.3906 Q642.3594,58.3906 642.6719,58.5156 Q642.9844,58.6406 643.25,58.8906 Z "/><text fill="#000000" font-family="sans-serif" font-size="6" lengthAdjust="spacingAndGlyphs" textLength="34.5" x="649.25" y="63.0957">GameActivity</text><line style="stroke: #A80036; stroke-width: 0.75;" x1="635.25" x2="684.75" y1="68.6406" y2="68.6406"/><line style="stroke: #A80036; stroke-width: 0.75;" x1="635.25" x2="684.75" y1="72.6406" y2="72.6406"/><!--class ConjugaisonActivity--><rect fill="#FEFECE" filter="url(#f1lv79js74tsvu)" height="134.6875" id="ConjugaisonActivity" style="stroke: #A80036; stroke-width: 0.75;" width="102" x="572.5" y="118.1406"/><ellipse cx="594.875" cy="126.1406" fill="#ADD1B2" rx="5.5" ry="5.5" style="stroke: #A80036; stroke-width: 0.5;"/><path d="M595.875,124.3906 Q595.9766,124.1406 596.0938,124.0156 Q596.2109,123.8906 596.3438,123.8906 Q596.5781,123.8906 596.7266,124.0313 Q596.875,124.1719 596.875,124.5 L596.875,125.2813 Q596.875,125.6094 596.7344,125.75 Q596.5938,125.8906 596.375,125.8906 Q596.1797,125.8906 596.0547,125.8047 Q595.9297,125.7188 595.875,125.4922 Q595.8516,125.3359 595.7656,125.25 Q595.6094,125.0859 595.3281,124.9883 Q595.0469,124.8906 594.7656,124.8906 Q594.4141,124.8906 594.1211,125.0313 Q593.8281,125.1719 593.6016,125.4844 Q593.375,125.7969 593.375,126.2266 L593.375,126.6875 Q593.375,127.2031 593.7969,127.5469 Q594.2188,127.8906 594.9688,127.8906 Q595.4141,127.8906 595.7266,127.7891 Q595.9063,127.7344 596.1094,127.5547 Q596.2422,127.4531 596.3125,127.4219 Q596.3828,127.3906 596.4688,127.3906 Q596.6328,127.3906 596.7539,127.5195 Q596.875,127.6484 596.875,127.8281 Q596.875,128 596.7031,128.2031 Q596.4531,128.5 596.0547,128.6641 Q595.5313,128.8906 594.8906,128.8906 Q594.1406,128.8906 593.5391,128.5938 Q593.0547,128.3594 592.7148,127.8516 Q592.375,127.3438 592.375,126.7422 L592.375,126.1953 Q592.375,125.5703 592.6758,125.0234 Q592.9766,124.4766 593.5039,124.1836 Q594.0313,123.8906 594.625,123.8906 Q594.9844,123.8906 595.2969,124.0156 Q595.6094,124.1406 595.875,124.3906 Z "/><text fill="#000000" font-family="sans-serif" font-size="6" lengthAdjust="spacingAndGlyphs" textLength="53" x="605.125" y="128.5957">ConjugaisonActivity</text><line style="stroke: #A80036; stroke-width: 0.75;" x1="573" x2="674" y1="134.1406" y2="134.1406"/><rect fill="none" height="3" style="stroke: #C82930; stroke-width: 0.5;" width="3" x="576.5" y="138.8496"/><text fill="#000000" font-family="sans-serif" font-size="5.5" lengthAdjust="spacingAndGlyphs" textLength="37.5" x="582.5" y="141.8501">time : TextView</text><rect fill="none" height="3" style="stroke: #C82930; stroke-width: 0.5;" width="3" x="576.5" y="145.7676"/><text fill="#000000" font-family="sans-serif" font-size="5.5" lengthAdjust="spacingAndGlyphs" textLength="39.5" x="582.5" y="148.7681">sujet : TextView</text><rect fill="none" height="3" style="stroke: #C82930; stroke-width: 0.5;" width="3" x="576.5" y="152.6855"/><text fill="#000000" font-family="sans-serif" font-size="5.5" lengthAdjust="spacingAndGlyphs" textLength="42" x="582.5" y="155.686">verbe : TextView</text><rect fill="none" height="3" style="stroke: #C82930; stroke-width: 0.5;" width="3" x="576.5" y="159.6035"/><text fill="#000000" font-family="sans-serif" font-size="5.5" lengthAdjust="spacingAndGlyphs" textLength="56.5" x="582.5" y="162.604">complement : TextView</text><rect fill="none" height="3" style="stroke: #C82930; stroke-width: 0.5;" width="3" x="576.5" y="166.5215"/><text fill="#000000" font-family="sans-serif" font-size="5.5" lengthAdjust="spacingAndGlyphs" textLength="36.5" x="582.5" y="169.522">hint : TextView</text><rect fill="none" height="3" style="stroke: #C82930; stroke-width: 0.5;" width="3" x="576.5" y="173.4395"/><text fill="#000000" font-family="sans-serif" font-size="5.5" lengthAdjust="spacingAndGlyphs" textLength="34" x="582.5" y="176.4399">verb1 : Button</text><rect fill="none" height="3" style="stroke: #C82930; stroke-width: 0.5;" width="3" x="576.5" y="180.3574"/><text fill="#000000" font-family="sans-serif" font-size="5.5" lengthAdjust="spacingAndGlyphs" textLength="34" x="582.5" y="183.3579">verb2 : Button</text><rect fill="none" height="3" style="stroke: #C82930; stroke-width: 0.5;" width="3" x="576.5" y="187.2754"/><text fill="#000000" font-family="sans-serif" font-size="5.5" lengthAdjust="spacingAndGlyphs" textLength="34" x="582.5" y="190.2759">verb3 : Button</text><rect fill="none" height="3" style="stroke: #C82930; stroke-width: 0.5;" width="3" x="576.5" y="194.1934"/><text fill="#000000" font-family="sans-serif" font-size="5.5" lengthAdjust="spacingAndGlyphs" textLength="34" x="582.5" y="197.1938">verb4 : Button</text><rect fill="none" height="3" style="stroke: #C82930; stroke-width: 0.5;" width="3" x="576.5" y="201.1113"/><text fill="#000000" font-family="sans-serif" font-size="5.5" lengthAdjust="spacingAndGlyphs" textLength="66" x="582.5" y="204.1118">chronometer : Chronometer</text><rect fill="none" height="3" style="stroke: #C82930; stroke-width: 0.5;" width="3" x="576.5" y="208.0293"/><text fill="#000000" font-family="sans-serif" font-size="5.5" lengthAdjust="spacingAndGlyphs" textLength="63.5" x="582.5" y="211.0298">layoutStars : LinearLayout</text><polygon fill="none" points="578,213.9473,580,215.9473,578,217.9473,576,215.9473" style="stroke: #B38D22; stroke-width: 0.5;"/><text fill="#000000" font-family="sans-serif" font-size="5.5" lengthAdjust="spacingAndGlyphs" textLength="61.5" x="582.5" y="217.9478">activateButton : Runnable</text><polygon fill="none" points="578,220.8652,580,222.8652,578,224.8652,576,222.8652" style="stroke: #B38D22; stroke-width: 0.5;"/><text fill="#000000" font-family="sans-serif" font-size="5.5" lengthAdjust="spacingAndGlyphs" textLength="78" x="582.5" y="224.8657">generateConjugaison : Runnable</text><rect fill="none" height="3" style="stroke: #C82930; stroke-width: 0.5;" width="3" x="576.5" y="228.7832"/><text fill="#000000" font-family="sans-serif" font-size="5.5" lengthAdjust="spacingAndGlyphs" textLength="86" x="582.5" y="231.7837">numberOfCompetenceAcquired : int</text><rect fill="none" height="3" style="stroke: #C82930; stroke-width: 0.5;" width="3" x="576.5" y="235.7012"/><text fill="#000000" font-family="sans-serif" font-size="5.5" lengthAdjust="spacingAndGlyphs" textLength="89" x="582.5" y="238.7017">mOwlAnimation : AnimationDrawable</text><line style="stroke: #A80036; stroke-width: 0.75;" x1="573" x2="674" y1="241.9102" y2="241.9102"/><polygon fill="#FFFF44" points="578,245.6191,580,247.6191,578,249.6191,576,247.6191" style="stroke: #B38D22; stroke-width: 0.5;"/><text fill="#000000" font-family="sans-serif" font-size="5.5" lengthAdjust="spacingAndGlyphs" textLength="26" x="582.5" y="249.6196">onCreate()</text><!--class ConjugaisonController--><rect fill="#FEFECE" filter="url(#f1lv79js74tsvu)" height="30.918" id="ConjugaisonController" style="stroke: #A80036; stroke-width: 0.75;" width="78.5" x="424.75" y="291.6406"/><ellipse cx="432.25" cy="299.6406" fill="#ADD1B2" rx="5.5" ry="5.5" style="stroke: #A80036; stroke-width: 0.5;"/><path d="M433.25,297.8906 Q433.3516,297.6406 433.4688,297.5156 Q433.5859,297.3906 433.7188,297.3906 Q433.9531,297.3906 434.1016,297.5313 Q434.25,297.6719 434.25,298 L434.25,298.7813 Q434.25,299.1094 434.1094,299.25 Q433.9688,299.3906 433.75,299.3906 Q433.5547,299.3906 433.4297,299.3047 Q433.3047,299.2188 433.25,298.9922 Q433.2266,298.8359 433.1406,298.75 Q432.9844,298.5859 432.7031,298.4883 Q432.4219,298.3906 432.1406,298.3906 Q431.7891,298.3906 431.4961,298.5313 Q431.2031,298.6719 430.9766,298.9844 Q430.75,299.2969 430.75,299.7266 L430.75,300.1875 Q430.75,300.7031 431.1719,301.0469 Q431.5938,301.3906 432.3438,301.3906 Q432.7891,301.3906 433.1016,301.2891 Q433.2813,301.2344 433.4844,301.0547 Q433.6172,300.9531 433.6875,300.9219 Q433.7578,300.8906 433.8438,300.8906 Q434.0078,300.8906 434.1289,301.0195 Q434.25,301.1484 434.25,301.3281 Q434.25,301.5 434.0781,301.7031 Q433.8281,302 433.4297,302.1641 Q432.9063,302.3906 432.2656,302.3906 Q431.5156,302.3906 430.9141,302.0938 Q430.4297,301.8594 430.0898,301.3516 Q429.75,300.8438 429.75,300.2422 L429.75,299.6953 Q429.75,299.0703 430.0508,298.5234 Q430.3516,297.9766 430.8789,297.6836 Q431.4063,297.3906 432,297.3906 Q432.3594,297.3906 432.6719,297.5156 Q432.9844,297.6406 433.25,297.8906 Z "/><text fill="#000000" font-family="sans-serif" font-size="6" lengthAdjust="spacingAndGlyphs" textLength="62.5" x="439.25" y="302.0957">ConjugaisonController</text><line style="stroke: #A80036; stroke-width: 0.75;" x1="425.25" x2="502.75" y1="307.6406" y2="307.6406"/><line style="stroke: #A80036; stroke-width: 0.75;" x1="425.25" x2="502.75" y1="311.6406" y2="311.6406"/><ellipse cx="430.25" cy="317.8496" fill="#84BE84" rx="1.5" ry="1.5" style="stroke: #038048; stroke-width: 0.5;"/><text fill="#000000" font-family="sans-serif" font-size="5.5" lengthAdjust="spacingAndGlyphs" textLength="56.5" x="434.75" y="319.3501">ConjugaisonController()</text><!--class FactorySetConjugaison--><rect fill="#FEFECE" filter="url(#f1lv79js74tsvu)" height="30.918" id="FactorySetConjugaison" style="stroke: #A80036; stroke-width: 0.75;" width="80" x="353" y="169.8906"/><ellipse cx="360.5" cy="177.8906" fill="#ADD1B2" rx="5.5" ry="5.5" style="stroke: #A80036; stroke-width: 0.5;"/><path d="M361.5,176.1406 Q361.6016,175.8906 361.7188,175.7656 Q361.8359,175.6406 361.9688,175.6406 Q362.2031,175.6406 362.3516,175.7813 Q362.5,175.9219 362.5,176.25 L362.5,177.0313 Q362.5,177.3594 362.3594,177.5 Q362.2188,177.6406 362,177.6406 Q361.8047,177.6406 361.6797,177.5547 Q361.5547,177.4688 361.5,177.2422 Q361.4766,177.0859 361.3906,177 Q361.2344,176.8359 360.9531,176.7383 Q360.6719,176.6406 360.3906,176.6406 Q360.0391,176.6406 359.7461,176.7813 Q359.4531,176.9219 359.2266,177.2344 Q359,177.5469 359,177.9766 L359,178.4375 Q359,178.9531 359.4219,179.2969 Q359.8438,179.6406 360.5938,179.6406 Q361.0391,179.6406 361.3516,179.5391 Q361.5313,179.4844 361.7344,179.3047 Q361.8672,179.2031 361.9375,179.1719 Q362.0078,179.1406 362.0938,179.1406 Q362.2578,179.1406 362.3789,179.2695 Q362.5,179.3984 362.5,179.5781 Q362.5,179.75 362.3281,179.9531 Q362.0781,180.25 361.6797,180.4141 Q361.1563,180.6406 360.5156,180.6406 Q359.7656,180.6406 359.1641,180.3438 Q358.6797,180.1094 358.3398,179.6016 Q358,179.0938 358,178.4922 L358,177.9453 Q358,177.3203 358.3008,176.7734 Q358.6016,176.2266 359.1289,175.9336 Q359.6563,175.6406 360.25,175.6406 Q360.6094,175.6406 360.9219,175.7656 Q361.2344,175.8906 361.5,176.1406 Z "/><text fill="#000000" font-family="sans-serif" font-size="6" lengthAdjust="spacingAndGlyphs" textLength="64" x="367.5" y="180.3457">FactorySetConjugaison</text><line style="stroke: #A80036; stroke-width: 0.75;" x1="353.5" x2="432.5" y1="185.8906" y2="185.8906"/><line style="stroke: #A80036; stroke-width: 0.75;" x1="353.5" x2="432.5" y1="189.8906" y2="189.8906"/><ellipse cx="358.5" cy="196.0996" fill="#84BE84" rx="1.5" ry="1.5" style="stroke: #038048; stroke-width: 0.5;"/><text fill="#000000" font-family="sans-serif" font-size="5.5" lengthAdjust="spacingAndGlyphs" textLength="57" x="363" y="197.6001">createSetConjugaison()</text><!--class I_SetConjugaison--><rect fill="#FEFECE" filter="url(#f1lv79js74tsvu)" height="93.1797" id="I_SetConjugaison" style="stroke: #A80036; stroke-width: 0.75;" width="86.5" x="380.75" y="372.6406"/><ellipse cx="397.7" cy="380.6406" fill="#B4A7E5" rx="5.5" ry="5.5" style="stroke: #A80036; stroke-width: 0.5;"/><path d="M398.2,379.1406 L398.2,382.1406 L399.2,382.1406 L399.4422,382.1406 L399.7,382.4531 L399.7,382.6406 L399.7,382.8281 L399.4422,383.1406 L399.2,383.1406 L396.2,383.1406 L395.9578,383.1406 L395.7,382.8281 L395.7,382.6406 L395.7,382.4531 L395.9578,382.1406 L396.2,382.1406 L397.2,382.1406 L397.2,379.1406 L396.2,379.1406 L395.9578,379.1406 L395.7,378.8281 L395.7,378.6406 L395.7,378.4531 L395.9578,378.1406 L396.2,378.1406 L399.2,378.1406 L399.4422,378.1406 L399.7,378.4531 L399.7,378.6406 L399.7,378.8281 L399.4422,379.1406 L399.2,379.1406 L398.2,379.1406 Z "/><text fill="#000000" font-family="sans-serif" font-size="6" font-style="italic" lengthAdjust="spacingAndGlyphs" textLength="49.5" x="406.8" y="383.0957">I_SetConjugaison</text><line style="stroke: #A80036; stroke-width: 0.75;" x1="381.25" x2="466.75" y1="388.6406" y2="388.6406"/><line style="stroke: #A80036; stroke-width: 0.75;" x1="381.25" x2="466.75" y1="392.6406" y2="392.6406"/><ellipse cx="386.25" cy="398.8496" fill="#84BE84" rx="1.5" ry="1.5" style="stroke: #038048; stroke-width: 0.5;"/><text fill="#000000" font-family="sans-serif" font-size="5.5" font-style="italic" lengthAdjust="spacingAndGlyphs" textLength="46" x="390.75" y="400.3501">createASentence()</text><ellipse cx="386.25" cy="405.7676" fill="#84BE84" rx="1.5" ry="1.5" style="stroke: #038048; stroke-width: 0.5;"/><text fill="#000000" font-family="sans-serif" font-size="5.5" font-style="italic" lengthAdjust="spacingAndGlyphs" textLength="59.5" x="390.75" y="407.2681">getTempsConjugaison()</text><ellipse cx="386.25" cy="412.6855" fill="#84BE84" rx="1.5" ry="1.5" style="stroke: #038048; stroke-width: 0.5;"/><text fill="#000000" font-family="sans-serif" font-size="5.5" font-style="italic" lengthAdjust="spacingAndGlyphs" textLength="55" x="390.75" y="414.186">getSujetConjugaison()</text><ellipse cx="386.25" cy="419.6035" fill="#84BE84" rx="1.5" ry="1.5" style="stroke: #038048; stroke-width: 0.5;"/><text fill="#000000" font-family="sans-serif" font-size="5.5" font-style="italic" lengthAdjust="spacingAndGlyphs" textLength="57.5" x="390.75" y="421.104">getVerbeConjugaison()</text><ellipse cx="386.25" cy="426.5215" fill="#84BE84" rx="1.5" ry="1.5" style="stroke: #038048; stroke-width: 0.5;"/><text fill="#000000" font-family="sans-serif" font-size="5.5" font-style="italic" lengthAdjust="spacingAndGlyphs" textLength="73.5" x="390.75" y="428.022">getComplementConjugaison()</text><ellipse cx="386.25" cy="433.4395" fill="#84BE84" rx="1.5" ry="1.5" style="stroke: #038048; stroke-width: 0.5;"/><text fill="#000000" font-family="sans-serif" font-size="5.5" font-style="italic" lengthAdjust="spacingAndGlyphs" textLength="59" x="390.75" y="434.9399">getInfinitifConjugaison()</text><ellipse cx="386.25" cy="440.3574" fill="#84BE84" rx="1.5" ry="1.5" style="stroke: #038048; stroke-width: 0.5;"/><text fill="#000000" font-family="sans-serif" font-size="5.5" font-style="italic" lengthAdjust="spacingAndGlyphs" textLength="51.5" x="390.75" y="441.8579">getListCompetence()</text><ellipse cx="386.25" cy="447.2754" fill="#84BE84" rx="1.5" ry="1.5" style="stroke: #038048; stroke-width: 0.5;"/><text fill="#000000" font-family="sans-serif" font-size="5.5" font-style="italic" lengthAdjust="spacingAndGlyphs" textLength="42.5" x="390.75" y="448.7759">getCompetence()</text><ellipse cx="386.25" cy="454.1934" fill="#84BE84" rx="1.5" ry="1.5" style="stroke: #038048; stroke-width: 0.5;"/><text fill="#000000" font-family="sans-serif" font-size="5.5" font-style="italic" lengthAdjust="spacingAndGlyphs" textLength="53" x="390.75" y="455.6938">succedCompetence()</text><ellipse cx="386.25" cy="461.1113" fill="#84BE84" rx="1.5" ry="1.5" style="stroke: #038048; stroke-width: 0.5;"/><text fill="#000000" font-family="sans-serif" font-size="5.5" font-style="italic" lengthAdjust="spacingAndGlyphs" textLength="53" x="390.75" y="462.6118">removeCompetence()</text><!--class SetConjugaisonCE1--><rect fill="#FEFECE" filter="url(#f1lv79js74tsvu)" height="37.8359" id="SetConjugaisonCE1" style="stroke: #A80036; stroke-width: 0.75;" width="112.5" x="173.25" y="496.1406"/><ellipse cx="199.125" cy="504.1406" fill="#ADD1B2" rx="5.5" ry="5.5" style="stroke: #A80036; stroke-width: 0.5;"/><path d="M200.125,502.3906 Q200.2266,502.1406 200.3438,502.0156 Q200.4609,501.8906 200.5938,501.8906 Q200.8281,501.8906 200.9766,502.0313 Q201.125,502.1719 201.125,502.5 L201.125,503.2813 Q201.125,503.6094 200.9844,503.75 Q200.8438,503.8906 200.625,503.8906 Q200.4297,503.8906 200.3047,503.8047 Q200.1797,503.7188 200.125,503.4922 Q200.1016,503.3359 200.0156,503.25 Q199.8594,503.0859 199.5781,502.9883 Q199.2969,502.8906 199.0156,502.8906 Q198.6641,502.8906 198.3711,503.0313 Q198.0781,503.1719 197.8516,503.4844 Q197.625,503.7969 197.625,504.2266 L197.625,504.6875 Q197.625,505.2031 198.0469,505.5469 Q198.4688,505.8906 199.2188,505.8906 Q199.6641,505.8906 199.9766,505.7891 Q200.1563,505.7344 200.3594,505.5547 Q200.4922,505.4531 200.5625,505.4219 Q200.6328,505.3906 200.7188,505.3906 Q200.8828,505.3906 201.0039,505.5195 Q201.125,505.6484 201.125,505.8281 Q201.125,506 200.9531,506.2031 Q200.7031,506.5 200.3047,506.6641 Q199.7813,506.8906 199.1406,506.8906 Q198.3906,506.8906 197.7891,506.5938 Q197.3047,506.3594 196.9648,505.8516 Q196.625,505.3438 196.625,504.7422 L196.625,504.1953 Q196.625,503.5703 196.9258,503.0234 Q197.2266,502.4766 197.7539,502.1836 Q198.2813,501.8906 198.875,501.8906 Q199.2344,501.8906 199.5469,502.0156 Q199.8594,502.1406 200.125,502.3906 Z "/><text fill="#000000" font-family="sans-serif" font-size="6" lengthAdjust="spacingAndGlyphs" textLength="56.5" x="209.375" y="506.5957">SetConjugaisonCE1</text><line style="stroke: #A80036; stroke-width: 0.75;" x1="173.75" x2="285.25" y1="512.1406" y2="512.1406"/><rect fill="none" height="3" style="stroke: #C82930; stroke-width: 0.5;" width="3" x="177.25" y="516.8496"/><text fill="#000000" font-family="sans-serif" font-size="5.5" lengthAdjust="spacingAndGlyphs" textLength="99.5" x="183.25" y="519.8501">listCompetence : ArrayList&lt;Competence&gt;</text><line style="stroke: #A80036; stroke-width: 0.75;" x1="173.75" x2="285.25" y1="523.0586" y2="523.0586"/><ellipse cx="178.75" cy="529.2676" fill="#84BE84" rx="1.5" ry="1.5" style="stroke: #038048; stroke-width: 0.5;"/><text fill="#000000" font-family="sans-serif" font-size="5.5" lengthAdjust="spacingAndGlyphs" textLength="51" x="183.25" y="530.7681">SetConjugaisonCE1()</text><!--class SetConjugaisonCE2--><rect fill="#FEFECE" filter="url(#f1lv79js74tsvu)" height="37.8359" id="SetConjugaisonCE2" style="stroke: #A80036; stroke-width: 0.75;" width="112.5" x="303.25" y="496.1406"/><ellipse cx="329.125" cy="504.1406" fill="#ADD1B2" rx="5.5" ry="5.5" style="stroke: #A80036; stroke-width: 0.5;"/><path d="M330.125,502.3906 Q330.2266,502.1406 330.3438,502.0156 Q330.4609,501.8906 330.5938,501.8906 Q330.8281,501.8906 330.9766,502.0313 Q331.125,502.1719 331.125,502.5 L331.125,503.2813 Q331.125,503.6094 330.9844,503.75 Q330.8438,503.8906 330.625,503.8906 Q330.4297,503.8906 330.3047,503.8047 Q330.1797,503.7188 330.125,503.4922 Q330.1016,503.3359 330.0156,503.25 Q329.8594,503.0859 329.5781,502.9883 Q329.2969,502.8906 329.0156,502.8906 Q328.6641,502.8906 328.3711,503.0313 Q328.0781,503.1719 327.8516,503.4844 Q327.625,503.7969 327.625,504.2266 L327.625,504.6875 Q327.625,505.2031 328.0469,505.5469 Q328.4688,505.8906 329.2188,505.8906 Q329.6641,505.8906 329.9766,505.7891 Q330.1563,505.7344 330.3594,505.5547 Q330.4922,505.4531 330.5625,505.4219 Q330.6328,505.3906 330.7188,505.3906 Q330.8828,505.3906 331.0039,505.5195 Q331.125,505.6484 331.125,505.8281 Q331.125,506 330.9531,506.2031 Q330.7031,506.5 330.3047,506.6641 Q329.7813,506.8906 329.1406,506.8906 Q328.3906,506.8906 327.7891,506.5938 Q327.3047,506.3594 326.9648,505.8516 Q326.625,505.3438 326.625,504.7422 L326.625,504.1953 Q326.625,503.5703 326.9258,503.0234 Q327.2266,502.4766 327.7539,502.1836 Q328.2813,501.8906 328.875,501.8906 Q329.2344,501.8906 329.5469,502.0156 Q329.8594,502.1406 330.125,502.3906 Z "/><text fill="#000000" font-family="sans-serif" font-size="6" lengthAdjust="spacingAndGlyphs" textLength="56.5" x="339.375" y="506.5957">SetConjugaisonCE2</text><line style="stroke: #A80036; stroke-width: 0.75;" x1="303.75" x2="415.25" y1="512.1406" y2="512.1406"/><rect fill="none" height="3" style="stroke: #C82930; stroke-width: 0.5;" width="3" x="307.25" y="516.8496"/><text fill="#000000" font-family="sans-serif" font-size="5.5" lengthAdjust="spacingAndGlyphs" textLength="99.5" x="313.25" y="519.8501">listCompetence : ArrayList&lt;Competence&gt;</text><line style="stroke: #A80036; stroke-width: 0.75;" x1="303.75" x2="415.25" y1="523.0586" y2="523.0586"/><ellipse cx="308.75" cy="529.2676" fill="#84BE84" rx="1.5" ry="1.5" style="stroke: #038048; stroke-width: 0.5;"/><text fill="#000000" font-family="sans-serif" font-size="5.5" lengthAdjust="spacingAndGlyphs" textLength="51" x="313.25" y="530.7681">SetConjugaisonCE2()</text><!--class SetConjugaisonCM1--><rect fill="#FEFECE" filter="url(#f1lv79js74tsvu)" height="37.8359" id="SetConjugaisonCM1" style="stroke: #A80036; stroke-width: 0.75;" width="112.5" x="433.25" y="496.1406"/><ellipse cx="458.875" cy="504.1406" fill="#ADD1B2" rx="5.5" ry="5.5" style="stroke: #A80036; stroke-width: 0.5;"/><path d="M459.875,502.3906 Q459.9766,502.1406 460.0938,502.0156 Q460.2109,501.8906 460.3438,501.8906 Q460.5781,501.8906 460.7266,502.0313 Q460.875,502.1719 460.875,502.5 L460.875,503.2813 Q460.875,503.6094 460.7344,503.75 Q460.5938,503.8906 460.375,503.8906 Q460.1797,503.8906 460.0547,503.8047 Q459.9297,503.7188 459.875,503.4922 Q459.8516,503.3359 459.7656,503.25 Q459.6094,503.0859 459.3281,502.9883 Q459.0469,502.8906 458.7656,502.8906 Q458.4141,502.8906 458.1211,503.0313 Q457.8281,503.1719 457.6016,503.4844 Q457.375,503.7969 457.375,504.2266 L457.375,504.6875 Q457.375,505.2031 457.7969,505.5469 Q458.2188,505.8906 458.9688,505.8906 Q459.4141,505.8906 459.7266,505.7891 Q459.9063,505.7344 460.1094,505.5547 Q460.2422,505.4531 460.3125,505.4219 Q460.3828,505.3906 460.4688,505.3906 Q460.6328,505.3906 460.7539,505.5195 Q460.875,505.6484 460.875,505.8281 Q460.875,506 460.7031,506.2031 Q460.4531,506.5 460.0547,506.6641 Q459.5313,506.8906 458.8906,506.8906 Q458.1406,506.8906 457.5391,506.5938 Q457.0547,506.3594 456.7148,505.8516 Q456.375,505.3438 456.375,504.7422 L456.375,504.1953 Q456.375,503.5703 456.6758,503.0234 Q456.9766,502.4766 457.5039,502.1836 Q458.0313,501.8906 458.625,501.8906 Q458.9844,501.8906 459.2969,502.0156 Q459.6094,502.1406 459.875,502.3906 Z "/><text fill="#000000" font-family="sans-serif" font-size="6" lengthAdjust="spacingAndGlyphs" textLength="57" x="469.125" y="506.5957">SetConjugaisonCM1</text><line style="stroke: #A80036; stroke-width: 0.75;" x1="433.75" x2="545.25" y1="512.1406" y2="512.1406"/><rect fill="none" height="3" style="stroke: #C82930; stroke-width: 0.5;" width="3" x="437.25" y="516.8496"/><text fill="#000000" font-family="sans-serif" font-size="5.5" lengthAdjust="spacingAndGlyphs" textLength="99.5" x="443.25" y="519.8501">listCompetence : ArrayList&lt;Competence&gt;</text><line style="stroke: #A80036; stroke-width: 0.75;" x1="433.75" x2="545.25" y1="523.0586" y2="523.0586"/><ellipse cx="438.75" cy="529.2676" fill="#84BE84" rx="1.5" ry="1.5" style="stroke: #038048; stroke-width: 0.5;"/><text fill="#000000" font-family="sans-serif" font-size="5.5" lengthAdjust="spacingAndGlyphs" textLength="52" x="443.25" y="530.7681">SetConjugaisonCM1()</text><!--class SetConjugaisonCM2--><rect fill="#FEFECE" filter="url(#f1lv79js74tsvu)" height="37.8359" id="SetConjugaisonCM2" style="stroke: #A80036; stroke-width: 0.75;" width="112.5" x="563.25" y="496.1406"/><ellipse cx="588.875" cy="504.1406" fill="#ADD1B2" rx="5.5" ry="5.5" style="stroke: #A80036; stroke-width: 0.5;"/><path d="M589.875,502.3906 Q589.9766,502.1406 590.0938,502.0156 Q590.2109,501.8906 590.3438,501.8906 Q590.5781,501.8906 590.7266,502.0313 Q590.875,502.1719 590.875,502.5 L590.875,503.2813 Q590.875,503.6094 590.7344,503.75 Q590.5938,503.8906 590.375,503.8906 Q590.1797,503.8906 590.0547,503.8047 Q589.9297,503.7188 589.875,503.4922 Q589.8516,503.3359 589.7656,503.25 Q589.6094,503.0859 589.3281,502.9883 Q589.0469,502.8906 588.7656,502.8906 Q588.4141,502.8906 588.1211,503.0313 Q587.8281,503.1719 587.6016,503.4844 Q587.375,503.7969 587.375,504.2266 L587.375,504.6875 Q587.375,505.2031 587.7969,505.5469 Q588.2188,505.8906 588.9688,505.8906 Q589.4141,505.8906 589.7266,505.7891 Q589.9063,505.7344 590.1094,505.5547 Q590.2422,505.4531 590.3125,505.4219 Q590.3828,505.3906 590.4688,505.3906 Q590.6328,505.3906 590.7539,505.5195 Q590.875,505.6484 590.875,505.8281 Q590.875,506 590.7031,506.2031 Q590.4531,506.5 590.0547,506.6641 Q589.5313,506.8906 588.8906,506.8906 Q588.1406,506.8906 587.5391,506.5938 Q587.0547,506.3594 586.7148,505.8516 Q586.375,505.3438 586.375,504.7422 L586.375,504.1953 Q586.375,503.5703 586.6758,503.0234 Q586.9766,502.4766 587.5039,502.1836 Q588.0313,501.8906 588.625,501.8906 Q588.9844,501.8906 589.2969,502.0156 Q589.6094,502.1406 589.875,502.3906 Z "/><text fill="#000000" font-family="sans-serif" font-size="6" lengthAdjust="spacingAndGlyphs" textLength="57" x="599.125" y="506.5957">SetConjugaisonCM2</text><line style="stroke: #A80036; stroke-width: 0.75;" x1="563.75" x2="675.25" y1="512.1406" y2="512.1406"/><rect fill="none" height="3" style="stroke: #C82930; stroke-width: 0.5;" width="3" x="567.25" y="516.8496"/><text fill="#000000" font-family="sans-serif" font-size="5.5" lengthAdjust="spacingAndGlyphs" textLength="99.5" x="573.25" y="519.8501">listCompetence : ArrayList&lt;Competence&gt;</text><line style="stroke: #A80036; stroke-width: 0.75;" x1="563.75" x2="675.25" y1="523.0586" y2="523.0586"/><ellipse cx="568.75" cy="529.2676" fill="#84BE84" rx="1.5" ry="1.5" style="stroke: #038048; stroke-width: 0.5;"/><text fill="#000000" font-family="sans-serif" font-size="5.5" lengthAdjust="spacingAndGlyphs" textLength="52" x="573.25" y="530.7681">SetConjugaisonCM2()</text><!--class SetConjugaisonCP--><rect fill="#FEFECE" filter="url(#f1lv79js74tsvu)" height="37.8359" id="SetConjugaisonCP" style="stroke: #A80036; stroke-width: 0.75;" width="112.5" x="43.25" y="496.1406"/><ellipse cx="70.875" cy="504.1406" fill="#ADD1B2" rx="5.5" ry="5.5" style="stroke: #A80036; stroke-width: 0.5;"/><path d="M71.875,502.3906 Q71.9766,502.1406 72.0938,502.0156 Q72.2109,501.8906 72.3438,501.8906 Q72.5781,501.8906 72.7266,502.0313 Q72.875,502.1719 72.875,502.5 L72.875,503.2813 Q72.875,503.6094 72.7344,503.75 Q72.5938,503.8906 72.375,503.8906 Q72.1797,503.8906 72.0547,503.8047 Q71.9297,503.7188 71.875,503.4922 Q71.8516,503.3359 71.7656,503.25 Q71.6094,503.0859 71.3281,502.9883 Q71.0469,502.8906 70.7656,502.8906 Q70.4141,502.8906 70.1211,503.0313 Q69.8281,503.1719 69.6016,503.4844 Q69.375,503.7969 69.375,504.2266 L69.375,504.6875 Q69.375,505.2031 69.7969,505.5469 Q70.2188,505.8906 70.9688,505.8906 Q71.4141,505.8906 71.7266,505.7891 Q71.9063,505.7344 72.1094,505.5547 Q72.2422,505.4531 72.3125,505.4219 Q72.3828,505.3906 72.4688,505.3906 Q72.6328,505.3906 72.7539,505.5195 Q72.875,505.6484 72.875,505.8281 Q72.875,506 72.7031,506.2031 Q72.4531,506.5 72.0547,506.6641 Q71.5313,506.8906 70.8906,506.8906 Q70.1406,506.8906 69.5391,506.5938 Q69.0547,506.3594 68.7148,505.8516 Q68.375,505.3438 68.375,504.7422 L68.375,504.1953 Q68.375,503.5703 68.6758,503.0234 Q68.9766,502.4766 69.5039,502.1836 Q70.0313,501.8906 70.625,501.8906 Q70.9844,501.8906 71.2969,502.0156 Q71.6094,502.1406 71.875,502.3906 Z "/><text fill="#000000" font-family="sans-serif" font-size="6" lengthAdjust="spacingAndGlyphs" textLength="53" x="81.125" y="506.5957">SetConjugaisonCP</text><line style="stroke: #A80036; stroke-width: 0.75;" x1="43.75" x2="155.25" y1="512.1406" y2="512.1406"/><rect fill="none" height="3" style="stroke: #C82930; stroke-width: 0.5;" width="3" x="47.25" y="516.8496"/><text fill="#000000" font-family="sans-serif" font-size="5.5" lengthAdjust="spacingAndGlyphs" textLength="99.5" x="53.25" y="519.8501">listCompetence : ArrayList&lt;Competence&gt;</text><line style="stroke: #A80036; stroke-width: 0.75;" x1="43.75" x2="155.25" y1="523.0586" y2="523.0586"/><ellipse cx="48.75" cy="529.2676" fill="#84BE84" rx="1.5" ry="1.5" style="stroke: #038048; stroke-width: 0.5;"/><text fill="#000000" font-family="sans-serif" font-size="5.5" lengthAdjust="spacingAndGlyphs" textLength="48" x="53.25" y="530.7681">SetConjugaisonCP()</text><!--class InfinitifData--><rect fill="#FEFECE" filter="url(#f1lv79js74tsvu)" height="30.918" id="InfinitifData" style="stroke: #A80036; stroke-width: 0.75;" width="46.5" x="538.25" y="824.3906"/><ellipse cx="545.75" cy="832.3906" fill="#ADD1B2" rx="5.5" ry="5.5" style="stroke: #A80036; stroke-width: 0.5;"/><path d="M546.75,830.6406 Q546.8516,830.3906 546.9688,830.2656 Q547.0859,830.1406 547.2188,830.1406 Q547.4531,830.1406 547.6016,830.2813 Q547.75,830.4219 547.75,830.75 L547.75,831.5313 Q547.75,831.8594 547.6094,832 Q547.4688,832.1406 547.25,832.1406 Q547.0547,832.1406 546.9297,832.0547 Q546.8047,831.9688 546.75,831.7422 Q546.7266,831.5859 546.6406,831.5 Q546.4844,831.3359 546.2031,831.2383 Q545.9219,831.1406 545.6406,831.1406 Q545.2891,831.1406 544.9961,831.2813 Q544.7031,831.4219 544.4766,831.7344 Q544.25,832.0469 544.25,832.4766 L544.25,832.9375 Q544.25,833.4531 544.6719,833.7969 Q545.0938,834.1406 545.8438,834.1406 Q546.2891,834.1406 546.6016,834.0391 Q546.7813,833.9844 546.9844,833.8047 Q547.1172,833.7031 547.1875,833.6719 Q547.2578,833.6406 547.3438,833.6406 Q547.5078,833.6406 547.6289,833.7695 Q547.75,833.8984 547.75,834.0781 Q547.75,834.25 547.5781,834.4531 Q547.3281,834.75 546.9297,834.9141 Q546.4063,835.1406 545.7656,835.1406 Q545.0156,835.1406 544.4141,834.8438 Q543.9297,834.6094 543.5898,834.1016 Q543.25,833.5938 543.25,832.9922 L543.25,832.4453 Q543.25,831.8203 543.5508,831.2734 Q543.8516,830.7266 544.3789,830.4336 Q544.9063,830.1406 545.5,830.1406 Q545.8594,830.1406 546.1719,830.2656 Q546.4844,830.3906 546.75,830.6406 Z "/><text fill="#000000" font-family="sans-serif" font-size="6" lengthAdjust="spacingAndGlyphs" textLength="30.5" x="552.75" y="834.8457">InfinitifData</text><line style="stroke: #A80036; stroke-width: 0.75;" x1="538.75" x2="584.25" y1="840.3906" y2="840.3906"/><line style="stroke: #A80036; stroke-width: 0.75;" x1="538.75" x2="584.25" y1="844.3906" y2="844.3906"/><ellipse cx="543.75" cy="850.5996" fill="#84BE84" rx="1.5" ry="1.5" style="stroke: #038048; stroke-width: 0.5;"/><text fill="#000000" font-family="sans-serif" font-size="5.5" lengthAdjust="spacingAndGlyphs" textLength="30.5" x="548.25" y="852.1001">InfinitifData()</text><!--class ListeInfinitif--><rect fill="#FEFECE" filter="url(#f1lv79js74tsvu)" height="58.5898" id="ListeInfinitif" style="stroke: #A80036; stroke-width: 0.75;" width="47" x="602.5" y="810.6406"/><ellipse cx="610" cy="818.6406" fill="#EB937F" rx="5.5" ry="5.5" style="stroke: #A80036; stroke-width: 0.5;"/><path d="M609.25,819.1406 L609.25,820.1406 L611.25,820.1406 L611.25,819.6406 L611.25,819.3984 L611.5625,819.1406 L611.75,819.1406 L611.9375,819.1406 L612.25,819.3984 L612.25,819.6406 L612.25,821.1406 L608.25,821.1406 L608.0078,821.1406 L607.75,820.8281 L607.75,820.6406 L607.75,820.4531 L608.0078,820.1406 L608.25,820.1406 L608.25,820.1406 L608.25,817.1406 L608.25,817.1406 L608.0078,817.1406 L607.75,816.8281 L607.75,816.6406 L607.75,816.4531 L608.0078,816.1406 L608.25,816.1406 L612.25,816.1406 L612.25,817.6406 L612.25,817.8828 L611.9375,818.1406 L611.75,818.1406 L611.5625,818.1406 L611.25,817.8828 L611.25,817.6406 L611.25,817.1406 L609.25,817.1406 L609.25,818.1406 L609.75,818.1406 L609.75,817.8984 L609.75,817.8984 L610.0625,817.6406 L610.25,817.6406 L610.4375,817.6406 L610.75,817.8984 L610.75,818.1406 L610.75,819.1406 L610.75,819.3828 L610.4375,819.6406 L610.4375,819.6406 L610.25,819.6406 L610.0625,819.6406 L609.75,819.3828 L609.75,819.3828 L609.75,819.1406 L609.25,819.1406 Z "/><text fill="#000000" font-family="sans-serif" font-size="6" lengthAdjust="spacingAndGlyphs" textLength="31" x="617" y="821.0957">ListeInfinitif</text><line style="stroke: #A80036; stroke-width: 0.75;" x1="603" x2="649" y1="826.6406" y2="826.6406"/><text fill="#000000" font-family="sans-serif" font-size="5.5" lengthAdjust="spacingAndGlyphs" textLength="15.5" x="605.5" y="834.3501">AIMER</text><text fill="#000000" font-family="sans-serif" font-size="5.5" lengthAdjust="spacingAndGlyphs" textLength="22" x="605.5" y="841.2681">MANGER</text><text fill="#000000" font-family="sans-serif" font-size="5.5" lengthAdjust="spacingAndGlyphs" textLength="16.5" x="605.5" y="848.186">CEDER</text><text fill="#000000" font-family="sans-serif" font-size="5.5" lengthAdjust="spacingAndGlyphs" textLength="14" x="605.5" y="855.104">verbe</text><text fill="#000000" font-family="sans-serif" font-size="5.5" lengthAdjust="spacingAndGlyphs" textLength="17" x="605.5" y="862.022">groupe</text><line style="stroke: #A80036; stroke-width: 0.75;" x1="603" x2="649" y1="865.2305" y2="865.2305"/><!--class ListeSujet--><rect fill="#FEFECE" filter="url(#f1lv79js74tsvu)" height="72.4258" id="ListeSujet" style="stroke: #A80036; stroke-width: 0.75;" width="43.5" x="539.75" y="919.6406"/><ellipse cx="547.25" cy="927.6406" fill="#EB937F" rx="5.5" ry="5.5" style="stroke: #A80036; stroke-width: 0.5;"/><path d="M546.5,928.1406 L546.5,929.1406 L548.5,929.1406 L548.5,928.6406 L548.5,928.3984 L548.8125,928.1406 L549,928.1406 L549.1875,928.1406 L549.5,928.3984 L549.5,928.6406 L549.5,930.1406 L545.5,930.1406 L545.2578,930.1406 L545,929.8281 L545,929.6406 L545,929.4531 L545.2578,929.1406 L545.5,929.1406 L545.5,929.1406 L545.5,926.1406 L545.5,926.1406 L545.2578,926.1406 L545,925.8281 L545,925.6406 L545,925.4531 L545.2578,925.1406 L545.5,925.1406 L549.5,925.1406 L549.5,926.6406 L549.5,926.8828 L549.1875,927.1406 L549,927.1406 L548.8125,927.1406 L548.5,926.8828 L548.5,926.6406 L548.5,926.1406 L546.5,926.1406 L546.5,927.1406 L547,927.1406 L547,926.8984 L547,926.8984 L547.3125,926.6406 L547.5,926.6406 L547.6875,926.6406 L548,926.8984 L548,927.1406 L548,928.1406 L548,928.3828 L547.6875,928.6406 L547.6875,928.6406 L547.5,928.6406 L547.3125,928.6406 L547,928.3828 L547,928.3828 L547,928.1406 L546.5,928.1406 Z "/><text fill="#000000" font-family="sans-serif" font-size="6" lengthAdjust="spacingAndGlyphs" textLength="27.5" x="554.25" y="930.0957">ListeSujet</text><line style="stroke: #A80036; stroke-width: 0.75;" x1="540.25" x2="582.75" y1="935.6406" y2="935.6406"/><text fill="#000000" font-family="sans-serif" font-size="5.5" lengthAdjust="spacingAndGlyphs" textLength="5.5" x="542.75" y="943.3501">JE</text><text fill="#000000" font-family="sans-serif" font-size="5.5" lengthAdjust="spacingAndGlyphs" textLength="6.5" x="542.75" y="950.2681">TU</text><text fill="#000000" font-family="sans-serif" font-size="5.5" lengthAdjust="spacingAndGlyphs" textLength="4" x="542.75" y="957.186">IL</text><text fill="#000000" font-family="sans-serif" font-size="5.5" lengthAdjust="spacingAndGlyphs" textLength="14.5" x="542.75" y="964.104">NOUS</text><text fill="#000000" font-family="sans-serif" font-size="5.5" lengthAdjust="spacingAndGlyphs" textLength="15" x="542.75" y="971.022">VOUS</text><text fill="#000000" font-family="sans-serif" font-size="5.5" lengthAdjust="spacingAndGlyphs" textLength="15.5" x="542.75" y="977.9399">ELLES</text><text fill="#000000" font-family="sans-serif" font-size="5.5" lengthAdjust="spacingAndGlyphs" textLength="11.5" x="542.75" y="984.8579">sujet</text><line style="stroke: #A80036; stroke-width: 0.75;" x1="540.25" x2="582.75" y1="988.0664" y2="988.0664"/><!--class ListeTemps--><rect fill="#FEFECE" filter="url(#f1lv79js74tsvu)" height="58.5898" id="ListeTemps" style="stroke: #A80036; stroke-width: 0.75;" width="52" x="451" y="926.6406"/><ellipse cx="459.85" cy="934.6406" fill="#EB937F" rx="5.5" ry="5.5" style="stroke: #A80036; stroke-width: 0.5;"/><path d="M459.1,935.1406 L459.1,936.1406 L461.1,936.1406 L461.1,935.6406 L461.1,935.3984 L461.4125,935.1406 L461.6,935.1406 L461.7875,935.1406 L462.1,935.3984 L462.1,935.6406 L462.1,937.1406 L458.1,937.1406 L457.8578,937.1406 L457.6,936.8281 L457.6,936.6406 L457.6,936.4531 L457.8578,936.1406 L458.1,936.1406 L458.1,936.1406 L458.1,933.1406 L458.1,933.1406 L457.8578,933.1406 L457.6,932.8281 L457.6,932.6406 L457.6,932.4531 L457.8578,932.1406 L458.1,932.1406 L462.1,932.1406 L462.1,933.6406 L462.1,933.8828 L461.7875,934.1406 L461.6,934.1406 L461.4125,934.1406 L461.1,933.8828 L461.1,933.6406 L461.1,933.1406 L459.1,933.1406 L459.1,934.1406 L459.6,934.1406 L459.6,933.8984 L459.6,933.8984 L459.9125,933.6406 L460.1,933.6406 L460.2875,933.6406 L460.6,933.8984 L460.6,934.1406 L460.6,935.1406 L460.6,935.3828 L460.2875,935.6406 L460.2875,935.6406 L460.1,935.6406 L459.9125,935.6406 L459.6,935.3828 L459.6,935.3828 L459.6,935.1406 L459.1,935.1406 Z "/><text fill="#000000" font-family="sans-serif" font-size="6" lengthAdjust="spacingAndGlyphs" textLength="33" x="467.15" y="937.0957">ListeTemps</text><line style="stroke: #A80036; stroke-width: 0.75;" x1="451.5" x2="502.5" y1="942.6406" y2="942.6406"/><text fill="#000000" font-family="sans-serif" font-size="5.5" lengthAdjust="spacingAndGlyphs" textLength="46" x="454" y="950.3501">PRESENTINDICATIF</text><text fill="#000000" font-family="sans-serif" font-size="5.5" lengthAdjust="spacingAndGlyphs" textLength="34.5" x="454" y="957.2681">PASSESIMPLE</text><text fill="#000000" font-family="sans-serif" font-size="5.5" lengthAdjust="spacingAndGlyphs" textLength="34" x="454" y="964.186">FUTURSIMPLE</text><text fill="#000000" font-family="sans-serif" font-size="5.5" lengthAdjust="spacingAndGlyphs" textLength="26.5" x="454" y="971.104">IMPARFAIT</text><text fill="#000000" font-family="sans-serif" font-size="5.5" lengthAdjust="spacingAndGlyphs" textLength="14.5" x="454" y="978.022">temps</text><line style="stroke: #A80036; stroke-width: 0.75;" x1="451.5" x2="502.5" y1="981.2305" y2="981.2305"/><!--class VerbeConjugueData--><rect fill="#FEFECE" filter="url(#f1lv79js74tsvu)" height="30.918" id="VerbeConjugueData" style="stroke: #A80036; stroke-width: 0.75;" width="72" x="448.5" y="824.3906"/><ellipse cx="456" cy="832.3906" fill="#ADD1B2" rx="5.5" ry="5.5" style="stroke: #A80036; stroke-width: 0.5;"/><path d="M457,830.6406 Q457.1016,830.3906 457.2188,830.2656 Q457.3359,830.1406 457.4688,830.1406 Q457.7031,830.1406 457.8516,830.2813 Q458,830.4219 458,830.75 L458,831.5313 Q458,831.8594 457.8594,832 Q457.7188,832.1406 457.5,832.1406 Q457.3047,832.1406 457.1797,832.0547 Q457.0547,831.9688 457,831.7422 Q456.9766,831.5859 456.8906,831.5 Q456.7344,831.3359 456.4531,831.2383 Q456.1719,831.1406 455.8906,831.1406 Q455.5391,831.1406 455.2461,831.2813 Q454.9531,831.4219 454.7266,831.7344 Q454.5,832.0469 454.5,832.4766 L454.5,832.9375 Q454.5,833.4531 454.9219,833.7969 Q455.3438,834.1406 456.0938,834.1406 Q456.5391,834.1406 456.8516,834.0391 Q457.0313,833.9844 457.2344,833.8047 Q457.3672,833.7031 457.4375,833.6719 Q457.5078,833.6406 457.5938,833.6406 Q457.7578,833.6406 457.8789,833.7695 Q458,833.8984 458,834.0781 Q458,834.25 457.8281,834.4531 Q457.5781,834.75 457.1797,834.9141 Q456.6563,835.1406 456.0156,835.1406 Q455.2656,835.1406 454.6641,834.8438 Q454.1797,834.6094 453.8398,834.1016 Q453.5,833.5938 453.5,832.9922 L453.5,832.4453 Q453.5,831.8203 453.8008,831.2734 Q454.1016,830.7266 454.6289,830.4336 Q455.1563,830.1406 455.75,830.1406 Q456.1094,830.1406 456.4219,830.2656 Q456.7344,830.3906 457,830.6406 Z "/><text fill="#000000" font-family="sans-serif" font-size="6" lengthAdjust="spacingAndGlyphs" textLength="56" x="463" y="834.8457">VerbeConjugueData</text><line style="stroke: #A80036; stroke-width: 0.75;" x1="449" x2="520" y1="840.3906" y2="840.3906"/><line style="stroke: #A80036; stroke-width: 0.75;" x1="449" x2="520" y1="844.3906" y2="844.3906"/><ellipse cx="454" cy="850.5996" fill="#84BE84" rx="1.5" ry="1.5" style="stroke: #038048; stroke-width: 0.5;"/><text fill="#000000" font-family="sans-serif" font-size="5.5" lengthAdjust="spacingAndGlyphs" textLength="52.5" x="458.5" y="852.1001">VerbeConjugueData()</text><!--class Competence--><rect fill="#FEFECE" filter="url(#f1lv79js74tsvu)" height="79.3438" id="Competence" style="stroke: #A80036; stroke-width: 0.75;" width="90" x="311" y="800.1406"/><ellipse cx="336.125" cy="808.1406" fill="#ADD1B2" rx="5.5" ry="5.5" style="stroke: #A80036; stroke-width: 0.5;"/><path d="M337.125,806.3906 Q337.2266,806.1406 337.3438,806.0156 Q337.4609,805.8906 337.5938,805.8906 Q337.8281,805.8906 337.9766,806.0313 Q338.125,806.1719 338.125,806.5 L338.125,807.2813 Q338.125,807.6094 337.9844,807.75 Q337.8438,807.8906 337.625,807.8906 Q337.4297,807.8906 337.3047,807.8047 Q337.1797,807.7188 337.125,807.4922 Q337.1016,807.3359 337.0156,807.25 Q336.8594,807.0859 336.5781,806.9883 Q336.2969,806.8906 336.0156,806.8906 Q335.6641,806.8906 335.3711,807.0313 Q335.0781,807.1719 334.8516,807.4844 Q334.625,807.7969 334.625,808.2266 L334.625,808.6875 Q334.625,809.2031 335.0469,809.5469 Q335.4688,809.8906 336.2188,809.8906 Q336.6641,809.8906 336.9766,809.7891 Q337.1563,809.7344 337.3594,809.5547 Q337.4922,809.4531 337.5625,809.4219 Q337.6328,809.3906 337.7188,809.3906 Q337.8828,809.3906 338.0039,809.5195 Q338.125,809.6484 338.125,809.8281 Q338.125,810 337.9531,810.2031 Q337.7031,810.5 337.3047,810.6641 Q336.7813,810.8906 336.1406,810.8906 Q335.3906,810.8906 334.7891,810.5938 Q334.3047,810.3594 333.9648,809.8516 Q333.625,809.3438 333.625,808.7422 L333.625,808.1953 Q333.625,807.5703 333.9258,807.0234 Q334.2266,806.4766 334.7539,806.1836 Q335.2813,805.8906 335.875,805.8906 Q336.2344,805.8906 336.5469,806.0156 Q336.8594,806.1406 337.125,806.3906 Z "/><text fill="#000000" font-family="sans-serif" font-size="6" lengthAdjust="spacingAndGlyphs" textLength="35.5" x="346.375" y="810.5957">Competence</text><line style="stroke: #A80036; stroke-width: 0.75;" x1="311.5" x2="400.5" y1="816.1406" y2="816.1406"/><rect fill="none" height="3" style="stroke: #C82930; stroke-width: 0.5;" width="3" x="315" y="820.8496"/><text fill="#000000" font-family="sans-serif" font-size="5.5" lengthAdjust="spacingAndGlyphs" textLength="31.5" x="321" y="823.8501">name : String</text><rect fill="none" height="3" style="stroke: #C82930; stroke-width: 0.5;" width="3" x="315" y="827.7676"/><text fill="#000000" font-family="sans-serif" font-size="5.5" lengthAdjust="spacingAndGlyphs" textLength="42" x="321" y="830.7681">numberOfTry : int</text><rect fill="none" height="3" style="stroke: #C82930; stroke-width: 0.5;" width="3" x="315" y="834.6855"/><text fill="#000000" font-family="sans-serif" font-size="5.5" lengthAdjust="spacingAndGlyphs" textLength="52.5" x="321" y="837.686">numberToSucced : int</text><rect fill="none" height="3" style="stroke: #C82930; stroke-width: 0.5;" width="3" x="315" y="841.6035"/><text fill="#000000" font-family="sans-serif" font-size="5.5" lengthAdjust="spacingAndGlyphs" textLength="44.5" x="321" y="844.604">acquired : boolean</text><rect fill="none" height="3" style="stroke: #C82930; stroke-width: 0.5;" width="3" x="315" y="848.5215"/><text fill="#000000" font-family="sans-serif" font-size="5.5" lengthAdjust="spacingAndGlyphs" textLength="77" x="321" y="851.522">listOfGroup : ArrayList&lt;Integer&gt;</text><line style="stroke: #A80036; stroke-width: 0.75;" x1="311.5" x2="400.5" y1="854.7305" y2="854.7305"/><ellipse cx="316.5" cy="860.9395" fill="#84BE84" rx="1.5" ry="1.5" style="stroke: #038048; stroke-width: 0.5;"/><text fill="#000000" font-family="sans-serif" font-size="5.5" lengthAdjust="spacingAndGlyphs" textLength="34" x="321" y="862.4399">Competence()</text><ellipse cx="316.5" cy="867.8574" fill="#84BE84" rx="1.5" ry="1.5" style="stroke: #038048; stroke-width: 0.5;"/><text fill="#000000" font-family="sans-serif" font-size="5.5" lengthAdjust="spacingAndGlyphs" textLength="34" x="321" y="869.3579">Competence()</text><ellipse cx="316.5" cy="874.7754" fill="#84BE84" rx="1.5" ry="1.5" style="stroke: #038048; stroke-width: 0.5;"/><text fill="#000000" font-family="sans-serif" font-size="5.5" lengthAdjust="spacingAndGlyphs" textLength="34" x="321" y="876.2759">Competence()</text><!--class I_Conjugaison--><rect fill="#FEFECE" filter="url(#f1lv79js74tsvu)" height="72.4258" id="I_Conjugaison" style="stroke: #A80036; stroke-width: 0.75;" width="58" x="330.5" y="585.1406"/><ellipse cx="338.675" cy="593.1406" fill="#B4A7E5" rx="5.5" ry="5.5" style="stroke: #A80036; stroke-width: 0.5;"/><path d="M339.175,591.6406 L339.175,594.6406 L340.175,594.6406 L340.4172,594.6406 L340.675,594.9531 L340.675,595.1406 L340.675,595.3281 L340.4172,595.6406 L340.175,595.6406 L337.175,595.6406 L336.9328,595.6406 L336.675,595.3281 L336.675,595.1406 L336.675,594.9531 L336.9328,594.6406 L337.175,594.6406 L338.175,594.6406 L338.175,591.6406 L337.175,591.6406 L336.9328,591.6406 L336.675,591.3281 L336.675,591.1406 L336.675,590.9531 L336.9328,590.6406 L337.175,590.6406 L340.175,590.6406 L340.4172,590.6406 L340.675,590.9531 L340.675,591.1406 L340.675,591.3281 L340.4172,591.6406 L340.175,591.6406 L339.175,591.6406 Z "/><text fill="#000000" font-family="sans-serif" font-size="6" font-style="italic" lengthAdjust="spacingAndGlyphs" textLength="40.5" x="345.825" y="595.5957">I_Conjugaison</text><line style="stroke: #A80036; stroke-width: 0.75;" x1="331" x2="388" y1="601.1406" y2="601.1406"/><line style="stroke: #A80036; stroke-width: 0.75;" x1="331" x2="388" y1="605.1406" y2="605.1406"/><ellipse cx="336" cy="611.3496" fill="#84BE84" rx="1.5" ry="1.5" style="stroke: #038048; stroke-width: 0.5;"/><text fill="#000000" font-family="sans-serif" font-size="5.5" font-style="italic" lengthAdjust="spacingAndGlyphs" textLength="28.5" x="340.5" y="612.8501">getTemps()</text><ellipse cx="336" cy="618.2676" fill="#84BE84" rx="1.5" ry="1.5" style="stroke: #038048; stroke-width: 0.5;"/><text fill="#000000" font-family="sans-serif" font-size="5.5" font-style="italic" lengthAdjust="spacingAndGlyphs" textLength="24" x="340.5" y="619.7681">getSujet()</text><ellipse cx="336" cy="625.1855" fill="#84BE84" rx="1.5" ry="1.5" style="stroke: #038048; stroke-width: 0.5;"/><text fill="#000000" font-family="sans-serif" font-size="5.5" font-style="italic" lengthAdjust="spacingAndGlyphs" textLength="26.5" x="340.5" y="626.686">getVerbe()</text><ellipse cx="336" cy="632.1035" fill="#84BE84" rx="1.5" ry="1.5" style="stroke: #038048; stroke-width: 0.5;"/><text fill="#000000" font-family="sans-serif" font-size="5.5" font-style="italic" lengthAdjust="spacingAndGlyphs" textLength="45" x="340.5" y="633.604">getGroupeVerbe()</text><ellipse cx="336" cy="639.0215" fill="#84BE84" rx="1.5" ry="1.5" style="stroke: #038048; stroke-width: 0.5;"/><text fill="#000000" font-family="sans-serif" font-size="5.5" font-style="italic" lengthAdjust="spacingAndGlyphs" textLength="42.5" x="340.5" y="640.522">getComplement()</text><ellipse cx="336" cy="645.9395" fill="#84BE84" rx="1.5" ry="1.5" style="stroke: #038048; stroke-width: 0.5;"/><text fill="#000000" font-family="sans-serif" font-size="5.5" font-style="italic" lengthAdjust="spacingAndGlyphs" textLength="28" x="340.5" y="647.4399">getInfinitif()</text><ellipse cx="336" cy="652.8574" fill="#84BE84" rx="1.5" ry="1.5" style="stroke: #038048; stroke-width: 0.5;"/><text fill="#000000" font-family="sans-serif" font-size="5.5" font-style="italic" lengthAdjust="spacingAndGlyphs" textLength="42.5" x="340.5" y="654.3579">getCompetence()</text><!--class Phrase--><rect fill="#FEFECE" filter="url(#f1lv79js74tsvu)" height="72.4258" id="Phrase" style="stroke: #A80036; stroke-width: 0.75;" width="60" x="329.5" y="688.1406"/><ellipse cx="347.8" cy="696.1406" fill="#ADD1B2" rx="5.5" ry="5.5" style="stroke: #A80036; stroke-width: 0.5;"/><path d="M348.8,694.3906 Q348.9016,694.1406 349.0188,694.0156 Q349.1359,693.8906 349.2688,693.8906 Q349.5031,693.8906 349.6516,694.0313 Q349.8,694.1719 349.8,694.5 L349.8,695.2813 Q349.8,695.6094 349.6594,695.75 Q349.5188,695.8906 349.3,695.8906 Q349.1047,695.8906 348.9797,695.8047 Q348.8547,695.7188 348.8,695.4922 Q348.7766,695.3359 348.6906,695.25 Q348.5344,695.0859 348.2531,694.9883 Q347.9719,694.8906 347.6906,694.8906 Q347.3391,694.8906 347.0461,695.0313 Q346.7531,695.1719 346.5266,695.4844 Q346.3,695.7969 346.3,696.2266 L346.3,696.6875 Q346.3,697.2031 346.7219,697.5469 Q347.1438,697.8906 347.8938,697.8906 Q348.3391,697.8906 348.6516,697.7891 Q348.8313,697.7344 349.0344,697.5547 Q349.1672,697.4531 349.2375,697.4219 Q349.3078,697.3906 349.3938,697.3906 Q349.5578,697.3906 349.6789,697.5195 Q349.8,697.6484 349.8,697.8281 Q349.8,698 349.6281,698.2031 Q349.3781,698.5 348.9797,698.6641 Q348.4563,698.8906 347.8156,698.8906 Q347.0656,698.8906 346.4641,698.5938 Q345.9797,698.3594 345.6398,697.8516 Q345.3,697.3438 345.3,696.7422 L345.3,696.1953 Q345.3,695.5703 345.6008,695.0234 Q345.9016,694.4766 346.4289,694.1836 Q346.9563,693.8906 347.55,693.8906 Q347.9094,693.8906 348.2219,694.0156 Q348.5344,694.1406 348.8,694.3906 Z "/><text fill="#000000" font-family="sans-serif" font-size="6" lengthAdjust="spacingAndGlyphs" textLength="20" x="357.2" y="698.5957">Phrase</text><line style="stroke: #A80036; stroke-width: 0.75;" x1="330" x2="389" y1="704.1406" y2="704.1406"/><rect fill="none" height="3" style="stroke: #C82930; stroke-width: 0.5;" width="3" x="333.5" y="708.8496"/><text fill="#000000" font-family="sans-serif" font-size="5.5" lengthAdjust="spacingAndGlyphs" textLength="30" x="339.5" y="711.8501">sujet : String</text><rect fill="none" height="3" style="stroke: #C82930; stroke-width: 0.5;" width="3" x="333.5" y="715.7676"/><text fill="#000000" font-family="sans-serif" font-size="5.5" lengthAdjust="spacingAndGlyphs" textLength="32.5" x="339.5" y="718.7681">verbe : String</text><rect fill="none" height="3" style="stroke: #C82930; stroke-width: 0.5;" width="3" x="333.5" y="722.6855"/><text fill="#000000" font-family="sans-serif" font-size="5.5" lengthAdjust="spacingAndGlyphs" textLength="42" x="339.5" y="725.686">groupeVerbe : int</text><rect fill="none" height="3" style="stroke: #C82930; stroke-width: 0.5;" width="3" x="333.5" y="729.6035"/><text fill="#000000" font-family="sans-serif" font-size="5.5" lengthAdjust="spacingAndGlyphs" textLength="47" x="339.5" y="732.604">complement : String</text><rect fill="none" height="3" style="stroke: #C82930; stroke-width: 0.5;" width="3" x="333.5" y="736.5215"/><text fill="#000000" font-family="sans-serif" font-size="5.5" lengthAdjust="spacingAndGlyphs" textLength="34" x="339.5" y="739.522">infinitif : String</text><rect fill="none" height="3" style="stroke: #C82930; stroke-width: 0.5;" width="3" x="333.5" y="743.4395"/><text fill="#000000" font-family="sans-serif" font-size="5.5" lengthAdjust="spacingAndGlyphs" textLength="33" x="339.5" y="746.4399">temps : String</text><line style="stroke: #A80036; stroke-width: 0.75;" x1="330" x2="389" y1="749.6484" y2="749.6484"/><ellipse cx="335" cy="755.8574" fill="#84BE84" rx="1.5" ry="1.5" style="stroke: #038048; stroke-width: 0.5;"/><text fill="#000000" font-family="sans-serif" font-size="5.5" lengthAdjust="spacingAndGlyphs" textLength="21" x="339.5" y="757.3579">Phrase()</text><!--link Competence to ListeTemps--><path d="M402.1365,884.2396 C418.625,899.9101 436.624,917.0171 450.841,930.5286 " fill="none" id="Competence-ListeTemps" style="stroke: #A80036; stroke-width: 0.5;"/><polygon fill="#FFFFFF" points="397.303,879.6456,398.1,883.162,401.6524,883.7788,400.8554,880.2624,397.303,879.6456" style="stroke: #A80036; stroke-width: 0.5;"/><text fill="#000000" font-family="sans-serif" font-size="6.5" lengthAdjust="spacingAndGlyphs" textLength="18" x="421" y="902.8882">temps</text><!--link I_Conjugaison to Phrase--><path d="M359.5,667.8181 C359.5,674.5816 359.5,681.4651 359.5,687.9866 " fill="none" id="I_Conjugaison-Phrase" style="stroke: #A80036; stroke-width: 0.5;"/><polygon fill="none" points="356,667.7086,359.5,657.7086,363,667.7086,356,667.7086" style="stroke: #A80036; stroke-width: 0.5;"/><!--link Phrase to Competence--><path d="M329.3605,766.7136 C328.044,769.6506 326.9015,772.6386 326,775.6406 C323.5725,783.7241 324.633,792.0811 327.478,799.9776 " fill="none" id="Phrase-Competence" style="stroke: #A80036; stroke-width: 0.5;"/><polygon fill="#FFFFFF" points="332.2835,760.7681,329.165,762.5779,329.6361,766.1525,332.7546,764.3428,332.2835,760.7681" style="stroke: #A80036; stroke-width: 0.5;"/><text fill="#000000" font-family="sans-serif" font-size="6.5" lengthAdjust="spacingAndGlyphs" textLength="35.5" x="326.5" y="782.8882">competence</text><!--link Phrase to AppDatabase--><path d="M395.477,762.4771 C499.726,811.2601 563.245,719.8811 657.5,788.6406 C684.53,808.3581 717.065,909.3126 727.56,943.8141 " fill="none" id="Phrase-AppDatabase" style="stroke: #A80036; stroke-width: 0.5;"/><polygon fill="#FFFFFF" points="389.52,759.5576,391.334,762.6736,394.908,762.1976,393.094,759.0816,389.52,759.5576" style="stroke: #A80036; stroke-width: 0.5;"/><text fill="#000000" font-family="sans-serif" font-size="6.5" lengthAdjust="spacingAndGlyphs" textLength="7" x="710.5" y="842.6382">db</text><!--link VerbeConjugueData to AppDatabase--><path d="M497.741,860.9641 C505.69,871.6916 516.73,884.1116 529.5,891.6406 C579.66,921.2206 602.485,900.5481 657.5,919.6406 C676.135,926.1071 696.2,936.0911 710.65,943.8661 " fill="none" id="VerbeConjugueData-AppDatabase" style="stroke: #A80036; stroke-width: 0.5;"/><polygon fill="#FFFFFF" points="493.8725,855.5436,493.9873,859.1473,497.358,860.4274,497.2432,856.8237,493.8725,855.5436" style="stroke: #A80036; stroke-width: 0.5;"/><text fill="#000000" font-family="sans-serif" font-size="6.5" lengthAdjust="spacingAndGlyphs" textLength="26.5" x="557.5" y="902.8882">database</text><!--link VerbeConjugueData to ListeTemps--><path d="M483.092,861.9796 C481.905,880.1831 480.1955,906.3936 478.8895,926.4201 " fill="none" id="VerbeConjugueData-ListeTemps" style="stroke: #A80036; stroke-width: 0.5;"/><polygon fill="#FFFFFF" points="483.5195,855.4246,481.3286,858.2881,483.1291,861.4119,485.3201,858.5484,483.5195,855.4246" style="stroke: #A80036; stroke-width: 0.5;"/><text fill="#000000" font-family="sans-serif" font-size="6.5" lengthAdjust="spacingAndGlyphs" textLength="18" x="481.5" y="902.8882">temps</text><!--link I_SetConjugaison to SetConjugaisonCE1--><path d="M371.581,445.2456 C338.749,461.2806 297.191,481.5806 267.517,496.0706 " fill="none" id="I_SetConjugaison-SetConjugaisonCE1" style="stroke: #A80036; stroke-width: 0.5;"/><polygon fill="none" points="370.071,442.0856,380.5925,440.8406,373.143,448.3756,370.071,442.0856" style="stroke: #A80036; stroke-width: 0.5;"/><!--link SetConjugaisonCE1 to I_Conjugaison--><path d="M257.588,538.3811 C279.093,555.7916 308.6605,579.7301 330.41,597.3391 " fill="none" id="SetConjugaisonCE1-I_Conjugaison" style="stroke: #A80036; stroke-width: 0.5;"/><polygon fill="#FFFFFF" points="252.442,534.2151,253.5153,537.6572,257.1054,537.9904,256.0321,534.5483,252.442,534.2151" style="stroke: #A80036; stroke-width: 0.5;"/><text fill="#000000" font-family="sans-serif" font-size="6.5" lengthAdjust="spacingAndGlyphs" textLength="34.5" x="283.5" y="557.3882">conjugaison</text><!--link I_SetConjugaison to SetConjugaisonCE2--><path d="M386.9285,474.2406 C381.6525,482.0106 376.5525,489.5256 372.211,495.9206 " fill="none" id="I_SetConjugaison-SetConjugaisonCE2" style="stroke: #A80036; stroke-width: 0.5;"/><polygon fill="none" points="384.182,472.0556,392.6945,465.7506,389.973,475.9906,384.182,472.0556" style="stroke: #A80036; stroke-width: 0.5;"/><!--link SetConjugaisonCE2 to I_Conjugaison--><path d="M359.5,540.8171 C359.5,554.0556 359.5,570.5121 359.5,585.0571 " fill="none" id="SetConjugaisonCE2-I_Conjugaison" style="stroke: #A80036; stroke-width: 0.5;"/><polygon fill="#FFFFFF" points="359.5,534.2151,357.5,537.2151,359.5,540.2151,361.5,537.2151,359.5,534.2151" style="stroke: #A80036; stroke-width: 0.5;"/><text fill="#000000" font-family="sans-serif" font-size="6.5" lengthAdjust="spacingAndGlyphs" textLength="34.5" x="360" y="557.3882">conjugaison</text><!--link I_SetConjugaison to SetConjugaisonCM1--><path d="M461.4755,473.9956 C466.894,481.8506 472.136,489.4556 476.5915,495.9206 " fill="none" id="I_SetConjugaison-SetConjugaisonCM1" style="stroke: #A80036; stroke-width: 0.5;"/><polygon fill="none" points="458.5855,475.9706,455.7905,465.7506,464.3485,471.9956,458.5855,475.9706" style="stroke: #A80036; stroke-width: 0.5;"/><!--link SetConjugaisonCM1 to I_Conjugaison--><path d="M445.051,537.0951 C430.3985,544.1436 414.0125,552.0006 399,559.1406 C395.2295,560.9341 393.529,560.2671 390.5,563.1406 C383.978,569.3271 378.529,577.1951 374.112,585.1171 " fill="none" id="SetConjugaisonCM1-I_Conjugaison" style="stroke: #A80036; stroke-width: 0.5;"/><polygon fill="#FFFFFF" points="451.001,534.2316,447.4305,533.7303,445.5944,536.8334,449.165,537.3347,451.001,534.2316" style="stroke: #A80036; stroke-width: 0.5;"/><text fill="#000000" font-family="sans-serif" font-size="6.5" lengthAdjust="spacingAndGlyphs" textLength="34.5" x="417" y="557.3882">conjugaison</text><!--link I_SetConjugaison to SetConjugaisonCM2--><path d="M476.409,468.8756 C494.43,476.2706 531.235,487.9356 563.11,497.7056 " fill="none" id="I_SetConjugaison-SetConjugaisonCM2" style="stroke: #A80036; stroke-width: 0.5;"/><polygon fill="none" points="474.8345,472.0006,467.2975,464.5556,477.833,465.6756,474.8345,472.0006" style="stroke: #A80036; stroke-width: 0.5;"/><!--link SetConjugaisonCM2 to I_Conjugaison--><path d="M579.03,536.9516 C571.065,540.4756 562.65,543.7531 554.5,546.1406 C543.905,549.2441 466.9885,558.0811 456,559.1406 C448.7425,559.8401 396.6405,559.2086 390.5,563.1406 C382.3545,568.3566 376.2005,576.4756 371.6135,584.9946 " fill="none" id="SetConjugaisonCM2-I_Conjugaison" style="stroke: #A80036; stroke-width: 0.5;"/><polygon fill="#FFFFFF" points="585.02,534.2196,581.4603,533.6463,579.562,536.7116,583.1217,537.285,585.02,534.2196" style="stroke: #A80036; stroke-width: 0.5;"/><text fill="#000000" font-family="sans-serif" font-size="6.5" lengthAdjust="spacingAndGlyphs" textLength="34.5" x="529" y="557.3882">conjugaison</text><!--link I_SetConjugaison to SetConjugaisonCP--><path d="M371.0225,435.1506 C311.8115,452.4856 216.3255,480.4406 155.7975,498.1606 " fill="none" id="I_SetConjugaison-SetConjugaisonCP" style="stroke: #A80036; stroke-width: 0.5;"/><polygon fill="none" points="370.1605,431.7556,380.741,432.3056,372.1275,438.4756,370.1605,431.7556" style="stroke: #A80036; stroke-width: 0.5;"/><!--link SetConjugaisonCP to I_Conjugaison--><path d="M143.789,536.9456 C150.685,540.1111 157.758,543.2711 164.5,546.1406 C222.714,570.9176 292.1695,596.6481 330.493,610.5196 " fill="none" id="SetConjugaisonCP-I_Conjugaison" style="stroke: #A80036; stroke-width: 0.5;"/><polygon fill="#FFFFFF" points="137.7865,534.1696,139.6698,537.2443,143.2322,536.6884,141.3489,533.6138,137.7865,534.1696" style="stroke: #A80036; stroke-width: 0.5;"/><text fill="#000000" font-family="sans-serif" font-size="6.5" lengthAdjust="spacingAndGlyphs" textLength="34.5" x="191.5" y="557.3882">conjugaison</text><!--link OnClickListener to ConjugaisonActivity--><path d="M593.49,86.4306 C596.25,95.4906 599.635,106.6006 603.13,118.0606 " fill="none" id="OnClickListener-ConjugaisonActivity" style="stroke: #A80036; stroke-width: 0.5;"/><polygon fill="none" points="590.135,87.4256,590.565,76.8406,596.83,85.3856,590.135,87.4256" style="stroke: #A80036; stroke-width: 0.5;"/><!--link GameActivity to ConjugaisonActivity--><path d="M653.51,86.4306 C650.75,95.4906 647.365,106.6006 643.87,118.0606 " fill="none" id="GameActivity-ConjugaisonActivity" style="stroke: #A80036; stroke-width: 0.5;"/><polygon fill="none" points="650.17,85.3856,656.435,76.8406,656.865,87.4256,650.17,85.3856" style="stroke: #A80036; stroke-width: 0.5;"/><!--link ConjugaisonActivity to AppDatabase--><path d="M679.81,221.6406 C705.59,242.7206 730.5,272.0456 730.5,306.6406 C730.5,306.6406 730.5,306.6406 730.5,840.3906 C730.5,878.2251 730.775,923.0606 730.915,943.8011 " fill="none" id="ConjugaisonActivity-AppDatabase" style="stroke: #A80036; stroke-width: 0.5;"/><polygon fill="#FFFFFF" points="674.65,217.5356,675.7509,220.969,679.3436,221.2733,678.2427,217.84,674.65,217.5356" style="stroke: #A80036; stroke-width: 0.5;"/><text fill="#000000" font-family="sans-serif" font-size="6.5" lengthAdjust="spacingAndGlyphs" textLength="26.5" x="731" y="557.3882">database</text><!--link ConjugaisonActivity to ConjugaisonController--><path d="M567.01,226.4706 C549.265,239.4406 529.69,253.9806 512,267.6406 C501.9715,275.3856 490.9895,284.2756 482.064,291.6106 " fill="none" id="ConjugaisonActivity-ConjugaisonController" style="stroke: #A80036; stroke-width: 0.5;"/><polygon fill="#FFFFFF" points="572.455,222.5006,568.8525,222.65,567.6049,226.0328,571.2073,225.8834,572.455,222.5006" style="stroke: #A80036; stroke-width: 0.5;"/><text fill="#000000" font-family="sans-serif" font-size="6.5" lengthAdjust="spacingAndGlyphs" textLength="9" x="512.5" y="274.8882">ctrl</text><!--link ConjugaisonController to I_SetConjugaison--><path d="M418.5915,319.4356 C410.0475,323.7606 402.18,329.6456 397,337.6406 C390.189,348.1506 390.816,360.5506 394.713,372.4456 " fill="none" id="ConjugaisonController-I_SetConjugaison" style="stroke: #A80036; stroke-width: 0.5;"/><polygon fill="#FFFFFF" points="424.5895,316.6856,421.0288,316.1184,419.1358,319.187,422.6964,319.7542,424.5895,316.6856" style="stroke: #A80036; stroke-width: 0.5;"/><text fill="#000000" font-family="sans-serif" font-size="6.5" lengthAdjust="spacingAndGlyphs" textLength="44.5" x="397.5" y="344.8882">setConjugaison</text><!--link InfinitifData to ListeInfinitif--><!--link InfinitifData to ListeSujet--><text fill="#888888" font-family="sans-serif" font-size="5" lengthAdjust="spacingAndGlyphs" textLength="0" x="783" y="1042.3311"/><text fill="#888888" font-family="sans-serif" font-size="5" lengthAdjust="spacingAndGlyphs" textLength="0" x="783" y="1048.6201"/><text fill="#888888" font-family="sans-serif" font-size="5" lengthAdjust="spacingAndGlyphs" textLength="196" x="587" y="1054.9092">PlantUML diagram generated by SketchIt! (https://bitbucket.org/pmesmeur/sketch.it)</text><text fill="#888888" font-family="sans-serif" font-size="5" lengthAdjust="spacingAndGlyphs" textLength="197" x="586" y="1061.1982">For more information about this tool, please contact philippe.mesmeur@gmail.com</text><!--
@startuml

title __CONJUGAISON's Class Diagram__\n

  package com.example.cassa.entrainementprojettut {
    package com.example.cassa.entrainementprojettut.conjugaison {
      class ConjugaisonActivity {
          - time : TextView
          - sujet : TextView
          - verbe : TextView
          - complement : TextView
          - hint : TextView
          - verb1 : Button
          - verb2 : Button
          - verb3 : Button
          - verb4 : Button
          - chronometer : Chronometer
          - layoutStars : LinearLayout
          # activateButton : Runnable
          # generateConjugaison : Runnable
          - numberOfCompetenceAcquired : int
          - mOwlAnimation : AnimationDrawable
          # onCreate()
      }
    }
  }


  package com.example.cassa.entrainementprojettut {
    package com.example.cassa.entrainementprojettut.conjugaison {
      class ConjugaisonController {
          + ConjugaisonController()
      }
    }
  }


  package com.example.cassa.entrainementprojettut {
    package com.example.cassa.entrainementprojettut.conjugaison {
      class FactorySetConjugaison {
          + createSetConjugaison()
      }
    }
  }

  package com.example.cassa.entrainementprojettut {
      package com.example.cassa.entrainementprojettut.conjugaison {
        package com.example.cassa.entrainementprojettut.conjugaison.SetsConjugaison {
          interface I_SetConjugaison {
              {abstract} + createASentence()
              {abstract} + getTempsConjugaison()
              {abstract} + getSujetConjugaison()
              {abstract} + getVerbeConjugaison()
              {abstract} + getComplementConjugaison()
              {abstract} + getInfinitifConjugaison()
              {abstract} + getListCompetence()
              {abstract} + getCompetence()
              {abstract} + succedCompetence()
              {abstract} + removeCompetence()
          }
        }
      }
    }


      package com.example.cassa.entrainementprojettut.conjugaison {
        package com.example.cassa.entrainementprojettut.conjugaison.SetsConjugaison {
          class SetConjugaisonCE1 {
              - listCompetence : ArrayList<Competence>
              + SetConjugaisonCE1()
          }
        }
      }



      package com.example.cassa.entrainementprojettut.conjugaison {
        package com.example.cassa.entrainementprojettut.conjugaison.SetsConjugaison {
          class SetConjugaisonCE2 {
              - listCompetence : ArrayList<Competence>
              + SetConjugaisonCE2()
          }
        }
    }


      package com.example.cassa.entrainementprojettut.conjugaison {
        package com.example.cassa.entrainementprojettut.conjugaison.SetsConjugaison {
          class SetConjugaisonCM1 {
              - listCompetence : ArrayList<Competence>
              + SetConjugaisonCM1()
          }
        }
      }



      package com.example.cassa.entrainementprojettut.conjugaison {
        package com.example.cassa.entrainementprojettut.conjugaison.SetsConjugaison {
          class SetConjugaisonCM2 {
              - listCompetence : ArrayList<Competence>
              + SetConjugaisonCM2()
          }
        }
      }



      package com.example.cassa.entrainementprojettut.conjugaison {
        package com.example.cassa.entrainementprojettut.conjugaison.SetsConjugaison {
          class SetConjugaisonCP {
              - listCompetence : ArrayList<Competence>
              + SetConjugaisonCP()
          }
        }
      }


        package com.example.cassa.entrainementprojettut.conjugaison {
          package com.example.cassa.entrainementprojettut.conjugaison.ConjugaisonUtil {
            class InfinitifData {
                + InfinitifData()
            }
          }
        }



        package com.example.cassa.entrainementprojettut.conjugaison {
          package com.example.cassa.entrainementprojettut.conjugaison.ConjugaisonUtil {
            enum ListeInfinitif {
              AIMER
              MANGER
              CEDER
              verbe
              groupe
            }
          }
        }



        package com.example.cassa.entrainementprojettut.conjugaison {
          package com.example.cassa.entrainementprojettut.conjugaison.ConjugaisonUtil {
            enum ListeSujet {
              JE
              TU
              IL
              NOUS
              VOUS
              ELLES
              sujet
            }
          }
        }



        package com.example.cassa.entrainementprojettut.conjugaison {
          package com.example.cassa.entrainementprojettut.conjugaison.ConjugaisonUtil {
            enum ListeTemps {
              PRESENTINDICATIF
              PASSESIMPLE
              FUTURSIMPLE
              IMPARFAIT
              temps
            }
          }

      }


        package com.example.cassa.entrainementprojettut.conjugaison {
          package com.example.cassa.entrainementprojettut.conjugaison.ConjugaisonUtil {
            class VerbeConjugueData {
                + VerbeConjugueData()
            }
          }
        }


          package com.example.cassa.entrainementprojettut.conjugaison {
            package com.example.cassa.entrainementprojettut.conjugaison.Conjugaisons {
              class Competence {
                  - name : String
                  - numberOfTry : int
                  - numberToSucced : int
                  - acquired : boolean
                  - listOfGroup : ArrayList<Integer>
                  + Competence()
                  + Competence()
                  + Competence()
              }
            }
          }



          package com.example.cassa.entrainementprojettut.conjugaison {
            package com.example.cassa.entrainementprojettut.conjugaison.Conjugaisons {
              interface I_Conjugaison {
                  {abstract} + getTemps()
                  {abstract} + getSujet()
                  {abstract} + getVerbe()
                  {abstract} + getGroupeVerbe()
                  {abstract} + getComplement()
                  {abstract} + getInfinitif()
                  {abstract} + getCompetence()
              }
            }
          }



          package com.example.cassa.entrainementprojettut.conjugaison {
            package com.example.cassa.entrainementprojettut.conjugaison.Conjugaisons {
              class Phrase {
                  - sujet : String
                  - verbe : String
                  - groupeVerbe : int
                  - complement : String
                  - infinitif : String
                  - temps : String
                  + Phrase()
              }
            }
          }
        


        Competence o- - ListeTemps : temps
        Phrase -up-|> I_Conjugaison
        Phrase o- - Competence : competence
        Phrase o- - AppDatabase : db



      VerbeConjugueData o- - AppDatabase : database
      VerbeConjugueData o- - ListeTemps : temps


    SetConjugaisonCE1 -up-|> I_SetConjugaison
    SetConjugaisonCE1 o- - I_Conjugaison : conjugaison
    SetConjugaisonCE2 -up-|> I_SetConjugaison
    SetConjugaisonCE2 o- - I_Conjugaison : conjugaison
    SetConjugaisonCM1 -up-|> I_SetConjugaison
    SetConjugaisonCM1 o- - I_Conjugaison : conjugaison
    SetConjugaisonCM2 -up-|> I_SetConjugaison
    SetConjugaisonCM2 o- - I_Conjugaison : conjugaison
    SetConjugaisonCP -up-|> I_SetConjugaison
    SetConjugaisonCP o- - I_Conjugaison : conjugaison


  ConjugaisonActivity -up-|> OnClickListener
  ConjugaisonActivity -up-|> GameActivity
  ConjugaisonActivity o- - AppDatabase : database
  ConjugaisonActivity o- - ConjugaisonController : ctrl
  ConjugaisonController o- - I_SetConjugaison : setConjugaison


right footer


PlantUML diagram generated by SketchIt! (https://bitbucket.org/pmesmeur/sketch.it)
For more information about this tool, please contact philippe.mesmeur@gmail.com
endfooter

@enduml

PlantUML version 1.2018.11(Sat Sep 22 18:43:53 CEST 2018)
(GPL source distribution)
Java Runtime: OpenJDK Runtime Environment
JVM: OpenJDK 64-Bit Server VM
Java Version: 1.8.0_152-release-1136-b06
Operating System: Windows 10
OS Version: 10.0
Default Encoding: Cp1252
Language: fr
Country: FR
--></g></svg>